<svg width="89" height="26" viewBox="0 0 89 26" fill="none" xmlns="http://www.w3.org/2000/svg">
<path d="M3.79457 26H0V5.81417H0.910698L2.41473 7.5748C2.75509 7.25634 3.12765 6.95608 3.5324 6.67402C3.93716 6.39195 4.35571 6.15083 4.78806 5.95066C5.22961 5.74138 5.68496 5.5776 6.15411 5.45932C6.62326 5.34103 7.097 5.28189 7.57535 5.28189C8.61483 5.28189 9.58992 5.46842 10.5006 5.84147C11.4205 6.20542 12.2208 6.72406 12.9016 7.39738C13.5915 8.07069 14.1342 8.88504 14.5298 9.84042C14.9253 10.7867 15.1231 11.8376 15.1231 12.9932C15.1231 14.1942 14.9253 15.277 14.5298 16.2415C14.1342 17.1968 13.5915 18.0112 12.9016 18.6845C12.2208 19.3487 11.4205 19.8583 10.5006 20.2131C9.58992 20.568 8.61483 20.7454 7.57535 20.7454C7.24419 20.7454 6.91302 20.709 6.58186 20.6362C6.2599 20.5634 5.93793 20.4679 5.61597 20.3496C5.3032 20.2222 4.99044 20.0812 4.67767 19.9265C4.37411 19.7718 4.07974 19.6126 3.79457 19.4488V26ZM11.3423 12.9932C11.3423 12.3745 11.2411 11.8194 11.0388 11.3281C10.8456 10.8367 10.5788 10.4227 10.2385 10.0861C9.89809 9.74033 9.49793 9.47647 9.03798 9.29449C8.57804 9.11251 8.09049 9.02152 7.57535 9.02152C7.06021 9.02152 6.57266 9.11251 6.11271 9.29449C5.66196 9.47647 5.26641 9.74033 4.92605 10.0861C4.58568 10.4227 4.31432 10.8367 4.11194 11.3281C3.91876 11.8194 3.82217 12.3745 3.82217 12.9932C3.82217 13.5846 3.91876 14.126 4.11194 14.6173C4.31432 15.1087 4.58568 15.5272 4.92605 15.873C5.26641 16.2187 5.66196 16.4871 6.11271 16.6782C6.57266 16.8693 7.06021 16.9648 7.57535 16.9648C8.09049 16.9648 8.57804 16.8693 9.03798 16.6782C9.49793 16.4871 9.89809 16.2187 10.2385 15.873C10.5788 15.5272 10.8456 15.1087 11.0388 14.6173C11.2411 14.126 11.3423 13.5846 11.3423 12.9932Z" fill="white"/>
<path d="M21.015 20.4315H17.2205V0H21.015V20.4315Z" fill="white"/>
<path d="M34.7583 18.7255C34.4547 18.9984 34.1282 19.2577 33.7786 19.5034C33.4382 19.74 33.0795 19.9493 32.7023 20.1312C32.3252 20.3041 31.9342 20.4406 31.5295 20.5407C31.1339 20.6499 30.7291 20.7045 30.3152 20.7045C29.4045 20.7045 28.549 20.5452 27.7487 20.2268C26.9484 19.9083 26.2447 19.4579 25.6375 18.8756C25.0396 18.2842 24.5658 17.5699 24.2163 16.7328C23.8759 15.8866 23.7057 14.9403 23.7057 13.894V5.81417H27.4589V13.894C27.4589 14.3853 27.5325 14.8266 27.6797 15.2178C27.8361 15.6 28.043 15.923 28.3006 16.1869C28.5582 16.4507 28.8572 16.6509 29.1975 16.7874C29.5471 16.9239 29.9196 16.9921 30.3152 16.9921C30.7015 16.9921 31.0649 16.9057 31.4053 16.7328C31.7548 16.5508 32.0584 16.3143 32.316 16.0231C32.5735 15.7319 32.7759 15.4044 32.9231 15.0404C33.0703 14.6674 33.1439 14.2852 33.1439 13.894V5.81417H36.9109V20.4315H36.0002L34.7583 18.7255Z" fill="white"/>
<path d="M58.5882 20.4315H54.835V11.1507C54.835 10.8959 54.7844 10.6548 54.6833 10.4273C54.5913 10.1998 54.4579 9.99965 54.2831 9.82677C54.1083 9.65389 53.9059 9.52196 53.676 9.43097C53.446 9.33088 53.2022 9.28084 52.9447 9.28084C52.6871 9.28084 52.4433 9.33088 52.2133 9.43097C51.9926 9.52196 51.7948 9.65389 51.62 9.82677C51.4544 9.99965 51.321 10.1998 51.2198 10.4273C51.1279 10.6548 51.0819 10.8959 51.0819 11.1507V20.4315H47.3149V11.1507C47.3149 10.8959 47.2643 10.6548 47.1631 10.4273C47.0711 10.1998 46.9377 9.99965 46.7629 9.82677C46.5882 9.65389 46.3858 9.52196 46.1558 9.43097C45.9258 9.33088 45.6821 9.28084 45.4245 9.28084C45.1669 9.28084 44.9232 9.33088 44.6932 9.43097C44.4724 9.52196 44.2746 9.65389 44.0998 9.82677C43.9343 9.99965 43.8009 10.1998 43.6997 10.4273C43.6077 10.6548 43.5617 10.8959 43.5617 11.1507V20.4315H39.7947V5.81417H40.7054L41.7265 6.93333C42.2509 6.49659 42.8258 6.15993 43.4513 5.92336C44.086 5.67769 44.7438 5.55486 45.4245 5.55486C46.1144 5.55486 46.7859 5.68224 47.4391 5.93701C48.1014 6.19178 48.6809 6.63307 49.1777 7.26089C49.4076 6.95153 49.6698 6.68766 49.9642 6.46929C50.2586 6.25092 50.5667 6.07349 50.8887 5.93701C51.2198 5.80052 51.5602 5.70499 51.9098 5.65039C52.2593 5.5867 52.6043 5.55486 52.9447 5.55486C53.7266 5.55486 54.4579 5.70044 55.1386 5.9916C55.8285 6.28276 56.4265 6.68311 56.9324 7.19265C57.4475 7.69309 57.8523 8.28451 58.1467 8.96693C58.441 9.64934 58.5882 10.3773 58.5882 11.1507V20.4315Z" fill="white"/>
<path d="M67.226 16.8556C67.3732 16.9011 67.5204 16.933 67.6676 16.9512C67.8148 16.9603 67.962 16.9648 68.1091 16.9648C68.4771 16.9648 68.8313 16.9148 69.1716 16.8147C69.512 16.7146 69.8294 16.5736 70.1237 16.3916C70.4273 16.2005 70.6941 15.9731 70.924 15.7092C71.1632 15.4362 71.3564 15.136 71.5036 14.8084L74.2633 17.5517C73.9137 18.043 73.5089 18.4843 73.049 18.8756C72.5982 19.2668 72.1061 19.5989 71.5726 19.8719C71.0482 20.1449 70.4917 20.3496 69.9029 20.4861C69.3234 20.6317 68.7255 20.7045 68.1091 20.7045C67.0697 20.7045 66.09 20.5134 65.1701 20.1312C64.2594 19.7491 63.4591 19.2168 62.7691 18.5344C62.0884 17.852 61.5503 17.0422 61.1547 16.105C60.7592 15.1587 60.5614 14.1214 60.5614 12.9932C60.5614 11.8376 60.7592 10.7822 61.1547 9.82677C61.5503 8.87139 62.0884 8.05704 62.7691 7.38373C63.4591 6.71041 64.2594 6.18723 65.1701 5.81417C66.09 5.44112 67.0697 5.25459 68.1091 5.25459C68.7255 5.25459 69.328 5.32738 69.9167 5.47297C70.5055 5.61855 71.062 5.82782 71.5864 6.10079C72.1199 6.37375 72.6166 6.71041 73.0766 7.11076C73.5365 7.50201 73.9413 7.94331 74.2909 8.43465L67.226 16.8556ZM69.1578 9.17165C68.983 9.10796 68.8083 9.06702 68.6335 9.04882C68.4679 9.03062 68.2931 9.02152 68.1091 9.02152C67.594 9.02152 67.1065 9.11706 66.6465 9.30814C66.1958 9.49011 65.8002 9.75398 65.4598 10.0997C65.1287 10.4455 64.8665 10.864 64.6733 11.3554C64.4802 11.8376 64.3836 12.3836 64.3836 12.9932C64.3836 13.1297 64.3882 13.2843 64.3974 13.4572C64.4158 13.6301 64.4388 13.8075 64.4664 13.9895C64.5032 14.1624 64.5445 14.3307 64.5905 14.4945C64.6365 14.6583 64.6963 14.8038 64.7699 14.9312L69.1578 9.17165Z" fill="white"/>
<path d="M84.3085 20.4315H75.6983V16.7192H84.3085C84.5661 16.7192 84.7869 16.6282 84.9709 16.4462C85.1548 16.2642 85.2468 16.0458 85.2468 15.7911C85.2468 15.5272 85.1548 15.3543 84.9709 15.2724C84.7869 15.1906 84.5661 15.1496 84.3085 15.1496H80.3898C79.7366 15.1496 79.1249 15.0268 78.5546 14.7811C77.9842 14.5354 77.4875 14.2033 77.0643 13.7848C76.6412 13.3571 76.3054 12.8612 76.0571 12.2971C75.8179 11.733 75.6983 11.1279 75.6983 10.4819C75.6983 9.83587 75.8179 9.2308 76.0571 8.66667C76.3054 8.10254 76.6412 7.6112 77.0643 7.19265C77.4875 6.7741 77.9842 6.44654 78.5546 6.20997C79.1249 5.9643 79.7366 5.84147 80.3898 5.84147H88.0203V9.55381H80.3898C80.1322 9.55381 79.9114 9.64479 79.7274 9.82677C79.5435 10.0087 79.4515 10.2271 79.4515 10.4819C79.4515 10.7458 79.5435 10.9732 79.7274 11.1643C79.9114 11.3463 80.1322 11.4373 80.3898 11.4373H84.3085C84.9525 11.4373 85.5596 11.5465 86.1299 11.7648C86.7003 11.9741 87.197 12.2698 87.6202 12.652C88.0433 13.0341 88.3791 13.4936 88.6274 14.0304C88.8758 14.5673 89 15.1542 89 15.7911C89 16.4371 88.8758 17.0422 88.6274 17.6063C88.3791 18.1613 88.0433 18.6527 87.6202 19.0803C87.197 19.4989 86.7003 19.831 86.1299 20.0766C85.5596 20.3132 84.9525 20.4315 84.3085 20.4315Z" fill="white"/>
</svg>
